<svg t="1720161459060" class="icon" viewBox="0 0 1024 1024" version="1.1" xmlns="http://www.w3.org/2000/svg" p-id="6040" width="200" height="200"><path d="M511.8976 95.3344c-227.3792 0-412.3648 184.9856-412.3648 412.3648s184.9856 412.3648 412.3648 412.3648 412.3648-184.9856 412.3648-412.3648-184.9856-412.3648-412.3648-412.3648z m0 763.2384c-193.4848 0-350.9248-157.44-350.9248-350.9248s157.44-350.9248 350.9248-350.9248 350.9248 157.44 350.9248 350.9248-157.44 350.9248-350.9248 350.9248z" fill="#6FB1F9" p-id="6041"></path><path d="M651.7248 466.6368h-108.0832V358.5536c0-16.9472-13.7728-30.72-30.72-30.72s-30.72 13.7728-30.72 30.72v108.0832H374.1184c-16.9472 0-30.72 13.7728-30.72 30.72s13.7728 30.72 30.72 30.72h108.0832v108.0832c0 16.9472 13.7728 30.72 30.72 30.72s30.72-13.7728 30.72-30.72v-108.0832h108.0832c16.9472 0 30.72-13.7728 30.72-30.72s-13.7728-30.72-30.72-30.72z" fill="#6FB1F9" p-id="6042"></path></svg>